<mxfile host="app.diagrams.net" agent="Mozilla/5.0 (Windows NT 10.0; Win64; x64; rv:141.0) Gecko/20100101 Firefox/141.0" version="28.1.1">
  <diagram name="Page-1" id="63vVCfD1VxwzjNceuNrs">
    <mxGraphModel dx="1189" dy="1664" grid="0" gridSize="10" guides="1" tooltips="1" connect="1" arrows="1" fold="1" page="0" pageScale="1" pageWidth="850" pageHeight="1100" math="0" shadow="0">
      <root>
        <mxCell id="0" />
        <mxCell id="1" parent="0" />
        <mxCell id="k10JmdyCMAcYPSyfV8gS-1" value="Gold.dim_customers" style="shape=table;startSize=30;container=1;collapsible=1;childLayout=tableLayout;fixedRows=1;rowLines=0;fontStyle=1;align=center;resizeLast=1;html=1;fillColor=#fff2cc;strokeColor=#d6b656;" vertex="1" parent="1">
          <mxGeometry x="-175" width="179" height="300" as="geometry" />
        </mxCell>
        <mxCell id="k10JmdyCMAcYPSyfV8gS-2" value="" style="shape=tableRow;horizontal=0;startSize=0;swimlaneHead=0;swimlaneBody=0;fillColor=none;collapsible=0;dropTarget=0;points=[[0,0.5],[1,0.5]];portConstraint=eastwest;top=0;left=0;right=0;bottom=1;" vertex="1" parent="k10JmdyCMAcYPSyfV8gS-1">
          <mxGeometry y="30" width="179" height="30" as="geometry" />
        </mxCell>
        <mxCell id="k10JmdyCMAcYPSyfV8gS-3" value="PK" style="shape=partialRectangle;connectable=0;fillColor=none;top=0;left=0;bottom=0;right=0;fontStyle=1;overflow=hidden;whiteSpace=wrap;html=1;" vertex="1" parent="k10JmdyCMAcYPSyfV8gS-2">
          <mxGeometry width="30" height="30" as="geometry">
            <mxRectangle width="30" height="30" as="alternateBounds" />
          </mxGeometry>
        </mxCell>
        <mxCell id="k10JmdyCMAcYPSyfV8gS-4" value="customer_key" style="shape=partialRectangle;connectable=0;fillColor=none;top=0;left=0;bottom=0;right=0;align=left;spacingLeft=6;fontStyle=5;overflow=hidden;whiteSpace=wrap;html=1;" vertex="1" parent="k10JmdyCMAcYPSyfV8gS-2">
          <mxGeometry x="30" width="149" height="30" as="geometry">
            <mxRectangle width="149" height="30" as="alternateBounds" />
          </mxGeometry>
        </mxCell>
        <mxCell id="k10JmdyCMAcYPSyfV8gS-5" value="" style="shape=tableRow;horizontal=0;startSize=0;swimlaneHead=0;swimlaneBody=0;fillColor=none;collapsible=0;dropTarget=0;points=[[0,0.5],[1,0.5]];portConstraint=eastwest;top=0;left=0;right=0;bottom=0;" vertex="1" parent="k10JmdyCMAcYPSyfV8gS-1">
          <mxGeometry y="60" width="179" height="30" as="geometry" />
        </mxCell>
        <mxCell id="k10JmdyCMAcYPSyfV8gS-6" value="" style="shape=partialRectangle;connectable=0;fillColor=none;top=0;left=0;bottom=0;right=0;editable=1;overflow=hidden;whiteSpace=wrap;html=1;" vertex="1" parent="k10JmdyCMAcYPSyfV8gS-5">
          <mxGeometry width="30" height="30" as="geometry">
            <mxRectangle width="30" height="30" as="alternateBounds" />
          </mxGeometry>
        </mxCell>
        <mxCell id="k10JmdyCMAcYPSyfV8gS-7" value="customer_id" style="shape=partialRectangle;connectable=0;fillColor=none;top=0;left=0;bottom=0;right=0;align=left;spacingLeft=6;overflow=hidden;whiteSpace=wrap;html=1;" vertex="1" parent="k10JmdyCMAcYPSyfV8gS-5">
          <mxGeometry x="30" width="149" height="30" as="geometry">
            <mxRectangle width="149" height="30" as="alternateBounds" />
          </mxGeometry>
        </mxCell>
        <mxCell id="k10JmdyCMAcYPSyfV8gS-8" value="" style="shape=tableRow;horizontal=0;startSize=0;swimlaneHead=0;swimlaneBody=0;fillColor=none;collapsible=0;dropTarget=0;points=[[0,0.5],[1,0.5]];portConstraint=eastwest;top=0;left=0;right=0;bottom=0;" vertex="1" parent="k10JmdyCMAcYPSyfV8gS-1">
          <mxGeometry y="90" width="179" height="30" as="geometry" />
        </mxCell>
        <mxCell id="k10JmdyCMAcYPSyfV8gS-9" value="" style="shape=partialRectangle;connectable=0;fillColor=none;top=0;left=0;bottom=0;right=0;editable=1;overflow=hidden;whiteSpace=wrap;html=1;" vertex="1" parent="k10JmdyCMAcYPSyfV8gS-8">
          <mxGeometry width="30" height="30" as="geometry">
            <mxRectangle width="30" height="30" as="alternateBounds" />
          </mxGeometry>
        </mxCell>
        <mxCell id="k10JmdyCMAcYPSyfV8gS-10" value="customer_number" style="shape=partialRectangle;connectable=0;fillColor=none;top=0;left=0;bottom=0;right=0;align=left;spacingLeft=6;overflow=hidden;whiteSpace=wrap;html=1;" vertex="1" parent="k10JmdyCMAcYPSyfV8gS-8">
          <mxGeometry x="30" width="149" height="30" as="geometry">
            <mxRectangle width="149" height="30" as="alternateBounds" />
          </mxGeometry>
        </mxCell>
        <mxCell id="k10JmdyCMAcYPSyfV8gS-11" value="" style="shape=tableRow;horizontal=0;startSize=0;swimlaneHead=0;swimlaneBody=0;fillColor=none;collapsible=0;dropTarget=0;points=[[0,0.5],[1,0.5]];portConstraint=eastwest;top=0;left=0;right=0;bottom=0;" vertex="1" parent="k10JmdyCMAcYPSyfV8gS-1">
          <mxGeometry y="120" width="179" height="30" as="geometry" />
        </mxCell>
        <mxCell id="k10JmdyCMAcYPSyfV8gS-12" value="" style="shape=partialRectangle;connectable=0;fillColor=none;top=0;left=0;bottom=0;right=0;editable=1;overflow=hidden;whiteSpace=wrap;html=1;" vertex="1" parent="k10JmdyCMAcYPSyfV8gS-11">
          <mxGeometry width="30" height="30" as="geometry">
            <mxRectangle width="30" height="30" as="alternateBounds" />
          </mxGeometry>
        </mxCell>
        <mxCell id="k10JmdyCMAcYPSyfV8gS-13" value="first_name" style="shape=partialRectangle;connectable=0;fillColor=none;top=0;left=0;bottom=0;right=0;align=left;spacingLeft=6;overflow=hidden;whiteSpace=wrap;html=1;" vertex="1" parent="k10JmdyCMAcYPSyfV8gS-11">
          <mxGeometry x="30" width="149" height="30" as="geometry">
            <mxRectangle width="149" height="30" as="alternateBounds" />
          </mxGeometry>
        </mxCell>
        <mxCell id="k10JmdyCMAcYPSyfV8gS-14" value="" style="shape=tableRow;horizontal=0;startSize=0;swimlaneHead=0;swimlaneBody=0;fillColor=none;collapsible=0;dropTarget=0;points=[[0,0.5],[1,0.5]];portConstraint=eastwest;top=0;left=0;right=0;bottom=0;" vertex="1" parent="k10JmdyCMAcYPSyfV8gS-1">
          <mxGeometry y="150" width="179" height="30" as="geometry" />
        </mxCell>
        <mxCell id="k10JmdyCMAcYPSyfV8gS-15" value="" style="shape=partialRectangle;connectable=0;fillColor=none;top=0;left=0;bottom=0;right=0;editable=1;overflow=hidden;whiteSpace=wrap;html=1;" vertex="1" parent="k10JmdyCMAcYPSyfV8gS-14">
          <mxGeometry width="30" height="30" as="geometry">
            <mxRectangle width="30" height="30" as="alternateBounds" />
          </mxGeometry>
        </mxCell>
        <mxCell id="k10JmdyCMAcYPSyfV8gS-16" value="last_name" style="shape=partialRectangle;connectable=0;fillColor=none;top=0;left=0;bottom=0;right=0;align=left;spacingLeft=6;overflow=hidden;whiteSpace=wrap;html=1;" vertex="1" parent="k10JmdyCMAcYPSyfV8gS-14">
          <mxGeometry x="30" width="149" height="30" as="geometry">
            <mxRectangle width="149" height="30" as="alternateBounds" />
          </mxGeometry>
        </mxCell>
        <mxCell id="k10JmdyCMAcYPSyfV8gS-17" value="" style="shape=tableRow;horizontal=0;startSize=0;swimlaneHead=0;swimlaneBody=0;fillColor=none;collapsible=0;dropTarget=0;points=[[0,0.5],[1,0.5]];portConstraint=eastwest;top=0;left=0;right=0;bottom=0;" vertex="1" parent="k10JmdyCMAcYPSyfV8gS-1">
          <mxGeometry y="180" width="179" height="30" as="geometry" />
        </mxCell>
        <mxCell id="k10JmdyCMAcYPSyfV8gS-18" value="" style="shape=partialRectangle;connectable=0;fillColor=none;top=0;left=0;bottom=0;right=0;editable=1;overflow=hidden;whiteSpace=wrap;html=1;" vertex="1" parent="k10JmdyCMAcYPSyfV8gS-17">
          <mxGeometry width="30" height="30" as="geometry">
            <mxRectangle width="30" height="30" as="alternateBounds" />
          </mxGeometry>
        </mxCell>
        <mxCell id="k10JmdyCMAcYPSyfV8gS-19" value="marital_status" style="shape=partialRectangle;connectable=0;fillColor=none;top=0;left=0;bottom=0;right=0;align=left;spacingLeft=6;overflow=hidden;whiteSpace=wrap;html=1;" vertex="1" parent="k10JmdyCMAcYPSyfV8gS-17">
          <mxGeometry x="30" width="149" height="30" as="geometry">
            <mxRectangle width="149" height="30" as="alternateBounds" />
          </mxGeometry>
        </mxCell>
        <mxCell id="k10JmdyCMAcYPSyfV8gS-20" value="" style="shape=tableRow;horizontal=0;startSize=0;swimlaneHead=0;swimlaneBody=0;fillColor=none;collapsible=0;dropTarget=0;points=[[0,0.5],[1,0.5]];portConstraint=eastwest;top=0;left=0;right=0;bottom=0;" vertex="1" parent="k10JmdyCMAcYPSyfV8gS-1">
          <mxGeometry y="210" width="179" height="30" as="geometry" />
        </mxCell>
        <mxCell id="k10JmdyCMAcYPSyfV8gS-21" value="" style="shape=partialRectangle;connectable=0;fillColor=none;top=0;left=0;bottom=0;right=0;editable=1;overflow=hidden;whiteSpace=wrap;html=1;" vertex="1" parent="k10JmdyCMAcYPSyfV8gS-20">
          <mxGeometry width="30" height="30" as="geometry">
            <mxRectangle width="30" height="30" as="alternateBounds" />
          </mxGeometry>
        </mxCell>
        <mxCell id="k10JmdyCMAcYPSyfV8gS-22" value="Gender" style="shape=partialRectangle;connectable=0;fillColor=none;top=0;left=0;bottom=0;right=0;align=left;spacingLeft=6;overflow=hidden;whiteSpace=wrap;html=1;" vertex="1" parent="k10JmdyCMAcYPSyfV8gS-20">
          <mxGeometry x="30" width="149" height="30" as="geometry">
            <mxRectangle width="149" height="30" as="alternateBounds" />
          </mxGeometry>
        </mxCell>
        <mxCell id="k10JmdyCMAcYPSyfV8gS-23" value="" style="shape=tableRow;horizontal=0;startSize=0;swimlaneHead=0;swimlaneBody=0;fillColor=none;collapsible=0;dropTarget=0;points=[[0,0.5],[1,0.5]];portConstraint=eastwest;top=0;left=0;right=0;bottom=0;" vertex="1" parent="k10JmdyCMAcYPSyfV8gS-1">
          <mxGeometry y="240" width="179" height="30" as="geometry" />
        </mxCell>
        <mxCell id="k10JmdyCMAcYPSyfV8gS-24" value="" style="shape=partialRectangle;connectable=0;fillColor=none;top=0;left=0;bottom=0;right=0;editable=1;overflow=hidden;whiteSpace=wrap;html=1;" vertex="1" parent="k10JmdyCMAcYPSyfV8gS-23">
          <mxGeometry width="30" height="30" as="geometry">
            <mxRectangle width="30" height="30" as="alternateBounds" />
          </mxGeometry>
        </mxCell>
        <mxCell id="k10JmdyCMAcYPSyfV8gS-25" value="birthdate" style="shape=partialRectangle;connectable=0;fillColor=none;top=0;left=0;bottom=0;right=0;align=left;spacingLeft=6;overflow=hidden;whiteSpace=wrap;html=1;" vertex="1" parent="k10JmdyCMAcYPSyfV8gS-23">
          <mxGeometry x="30" width="149" height="30" as="geometry">
            <mxRectangle width="149" height="30" as="alternateBounds" />
          </mxGeometry>
        </mxCell>
        <mxCell id="k10JmdyCMAcYPSyfV8gS-26" value="" style="shape=tableRow;horizontal=0;startSize=0;swimlaneHead=0;swimlaneBody=0;fillColor=none;collapsible=0;dropTarget=0;points=[[0,0.5],[1,0.5]];portConstraint=eastwest;top=0;left=0;right=0;bottom=0;" vertex="1" parent="k10JmdyCMAcYPSyfV8gS-1">
          <mxGeometry y="270" width="179" height="30" as="geometry" />
        </mxCell>
        <mxCell id="k10JmdyCMAcYPSyfV8gS-27" value="" style="shape=partialRectangle;connectable=0;fillColor=none;top=0;left=0;bottom=0;right=0;editable=1;overflow=hidden;whiteSpace=wrap;html=1;" vertex="1" parent="k10JmdyCMAcYPSyfV8gS-26">
          <mxGeometry width="30" height="30" as="geometry">
            <mxRectangle width="30" height="30" as="alternateBounds" />
          </mxGeometry>
        </mxCell>
        <mxCell id="k10JmdyCMAcYPSyfV8gS-28" value="create_date" style="shape=partialRectangle;connectable=0;fillColor=none;top=0;left=0;bottom=0;right=0;align=left;spacingLeft=6;overflow=hidden;whiteSpace=wrap;html=1;" vertex="1" parent="k10JmdyCMAcYPSyfV8gS-26">
          <mxGeometry x="30" width="149" height="30" as="geometry">
            <mxRectangle width="149" height="30" as="alternateBounds" />
          </mxGeometry>
        </mxCell>
        <mxCell id="k10JmdyCMAcYPSyfV8gS-29" value="gold.dim_products" style="shape=table;startSize=30;container=1;collapsible=1;childLayout=tableLayout;fixedRows=1;rowLines=0;fontStyle=1;align=center;resizeLast=1;html=1;fillColor=#fff2cc;strokeColor=#d6b656;" vertex="1" parent="1">
          <mxGeometry x="431" y="-12" width="179" height="390" as="geometry" />
        </mxCell>
        <mxCell id="k10JmdyCMAcYPSyfV8gS-30" value="" style="shape=tableRow;horizontal=0;startSize=0;swimlaneHead=0;swimlaneBody=0;fillColor=none;collapsible=0;dropTarget=0;points=[[0,0.5],[1,0.5]];portConstraint=eastwest;top=0;left=0;right=0;bottom=1;" vertex="1" parent="k10JmdyCMAcYPSyfV8gS-29">
          <mxGeometry y="30" width="179" height="30" as="geometry" />
        </mxCell>
        <mxCell id="k10JmdyCMAcYPSyfV8gS-31" value="PK" style="shape=partialRectangle;connectable=0;fillColor=none;top=0;left=0;bottom=0;right=0;fontStyle=1;overflow=hidden;whiteSpace=wrap;html=1;" vertex="1" parent="k10JmdyCMAcYPSyfV8gS-30">
          <mxGeometry width="30" height="30" as="geometry">
            <mxRectangle width="30" height="30" as="alternateBounds" />
          </mxGeometry>
        </mxCell>
        <mxCell id="k10JmdyCMAcYPSyfV8gS-32" value="product_key" style="shape=partialRectangle;connectable=0;fillColor=none;top=0;left=0;bottom=0;right=0;align=left;spacingLeft=6;fontStyle=5;overflow=hidden;whiteSpace=wrap;html=1;" vertex="1" parent="k10JmdyCMAcYPSyfV8gS-30">
          <mxGeometry x="30" width="149" height="30" as="geometry">
            <mxRectangle width="149" height="30" as="alternateBounds" />
          </mxGeometry>
        </mxCell>
        <mxCell id="k10JmdyCMAcYPSyfV8gS-33" value="" style="shape=tableRow;horizontal=0;startSize=0;swimlaneHead=0;swimlaneBody=0;fillColor=none;collapsible=0;dropTarget=0;points=[[0,0.5],[1,0.5]];portConstraint=eastwest;top=0;left=0;right=0;bottom=0;" vertex="1" parent="k10JmdyCMAcYPSyfV8gS-29">
          <mxGeometry y="60" width="179" height="30" as="geometry" />
        </mxCell>
        <mxCell id="k10JmdyCMAcYPSyfV8gS-34" value="" style="shape=partialRectangle;connectable=0;fillColor=none;top=0;left=0;bottom=0;right=0;editable=1;overflow=hidden;whiteSpace=wrap;html=1;" vertex="1" parent="k10JmdyCMAcYPSyfV8gS-33">
          <mxGeometry width="30" height="30" as="geometry">
            <mxRectangle width="30" height="30" as="alternateBounds" />
          </mxGeometry>
        </mxCell>
        <mxCell id="k10JmdyCMAcYPSyfV8gS-35" value="product_id" style="shape=partialRectangle;connectable=0;fillColor=none;top=0;left=0;bottom=0;right=0;align=left;spacingLeft=6;overflow=hidden;whiteSpace=wrap;html=1;" vertex="1" parent="k10JmdyCMAcYPSyfV8gS-33">
          <mxGeometry x="30" width="149" height="30" as="geometry">
            <mxRectangle width="149" height="30" as="alternateBounds" />
          </mxGeometry>
        </mxCell>
        <mxCell id="k10JmdyCMAcYPSyfV8gS-36" value="" style="shape=tableRow;horizontal=0;startSize=0;swimlaneHead=0;swimlaneBody=0;fillColor=none;collapsible=0;dropTarget=0;points=[[0,0.5],[1,0.5]];portConstraint=eastwest;top=0;left=0;right=0;bottom=0;" vertex="1" parent="k10JmdyCMAcYPSyfV8gS-29">
          <mxGeometry y="90" width="179" height="30" as="geometry" />
        </mxCell>
        <mxCell id="k10JmdyCMAcYPSyfV8gS-37" value="" style="shape=partialRectangle;connectable=0;fillColor=none;top=0;left=0;bottom=0;right=0;editable=1;overflow=hidden;whiteSpace=wrap;html=1;" vertex="1" parent="k10JmdyCMAcYPSyfV8gS-36">
          <mxGeometry width="30" height="30" as="geometry">
            <mxRectangle width="30" height="30" as="alternateBounds" />
          </mxGeometry>
        </mxCell>
        <mxCell id="k10JmdyCMAcYPSyfV8gS-38" value="product_id" style="shape=partialRectangle;connectable=0;fillColor=none;top=0;left=0;bottom=0;right=0;align=left;spacingLeft=6;overflow=hidden;whiteSpace=wrap;html=1;" vertex="1" parent="k10JmdyCMAcYPSyfV8gS-36">
          <mxGeometry x="30" width="149" height="30" as="geometry">
            <mxRectangle width="149" height="30" as="alternateBounds" />
          </mxGeometry>
        </mxCell>
        <mxCell id="k10JmdyCMAcYPSyfV8gS-39" value="" style="shape=tableRow;horizontal=0;startSize=0;swimlaneHead=0;swimlaneBody=0;fillColor=none;collapsible=0;dropTarget=0;points=[[0,0.5],[1,0.5]];portConstraint=eastwest;top=0;left=0;right=0;bottom=0;" vertex="1" parent="k10JmdyCMAcYPSyfV8gS-29">
          <mxGeometry y="120" width="179" height="30" as="geometry" />
        </mxCell>
        <mxCell id="k10JmdyCMAcYPSyfV8gS-40" value="" style="shape=partialRectangle;connectable=0;fillColor=none;top=0;left=0;bottom=0;right=0;editable=1;overflow=hidden;whiteSpace=wrap;html=1;" vertex="1" parent="k10JmdyCMAcYPSyfV8gS-39">
          <mxGeometry width="30" height="30" as="geometry">
            <mxRectangle width="30" height="30" as="alternateBounds" />
          </mxGeometry>
        </mxCell>
        <mxCell id="k10JmdyCMAcYPSyfV8gS-41" value="product_number" style="shape=partialRectangle;connectable=0;fillColor=none;top=0;left=0;bottom=0;right=0;align=left;spacingLeft=6;overflow=hidden;whiteSpace=wrap;html=1;" vertex="1" parent="k10JmdyCMAcYPSyfV8gS-39">
          <mxGeometry x="30" width="149" height="30" as="geometry">
            <mxRectangle width="149" height="30" as="alternateBounds" />
          </mxGeometry>
        </mxCell>
        <mxCell id="k10JmdyCMAcYPSyfV8gS-42" value="" style="shape=tableRow;horizontal=0;startSize=0;swimlaneHead=0;swimlaneBody=0;fillColor=none;collapsible=0;dropTarget=0;points=[[0,0.5],[1,0.5]];portConstraint=eastwest;top=0;left=0;right=0;bottom=0;" vertex="1" parent="k10JmdyCMAcYPSyfV8gS-29">
          <mxGeometry y="150" width="179" height="30" as="geometry" />
        </mxCell>
        <mxCell id="k10JmdyCMAcYPSyfV8gS-43" value="" style="shape=partialRectangle;connectable=0;fillColor=none;top=0;left=0;bottom=0;right=0;editable=1;overflow=hidden;whiteSpace=wrap;html=1;" vertex="1" parent="k10JmdyCMAcYPSyfV8gS-42">
          <mxGeometry width="30" height="30" as="geometry">
            <mxRectangle width="30" height="30" as="alternateBounds" />
          </mxGeometry>
        </mxCell>
        <mxCell id="k10JmdyCMAcYPSyfV8gS-44" value="product_name" style="shape=partialRectangle;connectable=0;fillColor=none;top=0;left=0;bottom=0;right=0;align=left;spacingLeft=6;overflow=hidden;whiteSpace=wrap;html=1;" vertex="1" parent="k10JmdyCMAcYPSyfV8gS-42">
          <mxGeometry x="30" width="149" height="30" as="geometry">
            <mxRectangle width="149" height="30" as="alternateBounds" />
          </mxGeometry>
        </mxCell>
        <mxCell id="k10JmdyCMAcYPSyfV8gS-45" value="" style="shape=tableRow;horizontal=0;startSize=0;swimlaneHead=0;swimlaneBody=0;fillColor=none;collapsible=0;dropTarget=0;points=[[0,0.5],[1,0.5]];portConstraint=eastwest;top=0;left=0;right=0;bottom=0;" vertex="1" parent="k10JmdyCMAcYPSyfV8gS-29">
          <mxGeometry y="180" width="179" height="30" as="geometry" />
        </mxCell>
        <mxCell id="k10JmdyCMAcYPSyfV8gS-46" value="" style="shape=partialRectangle;connectable=0;fillColor=none;top=0;left=0;bottom=0;right=0;editable=1;overflow=hidden;whiteSpace=wrap;html=1;" vertex="1" parent="k10JmdyCMAcYPSyfV8gS-45">
          <mxGeometry width="30" height="30" as="geometry">
            <mxRectangle width="30" height="30" as="alternateBounds" />
          </mxGeometry>
        </mxCell>
        <mxCell id="k10JmdyCMAcYPSyfV8gS-47" value="category_id" style="shape=partialRectangle;connectable=0;fillColor=none;top=0;left=0;bottom=0;right=0;align=left;spacingLeft=6;overflow=hidden;whiteSpace=wrap;html=1;" vertex="1" parent="k10JmdyCMAcYPSyfV8gS-45">
          <mxGeometry x="30" width="149" height="30" as="geometry">
            <mxRectangle width="149" height="30" as="alternateBounds" />
          </mxGeometry>
        </mxCell>
        <mxCell id="k10JmdyCMAcYPSyfV8gS-48" value="" style="shape=tableRow;horizontal=0;startSize=0;swimlaneHead=0;swimlaneBody=0;fillColor=none;collapsible=0;dropTarget=0;points=[[0,0.5],[1,0.5]];portConstraint=eastwest;top=0;left=0;right=0;bottom=0;" vertex="1" parent="k10JmdyCMAcYPSyfV8gS-29">
          <mxGeometry y="210" width="179" height="30" as="geometry" />
        </mxCell>
        <mxCell id="k10JmdyCMAcYPSyfV8gS-49" value="" style="shape=partialRectangle;connectable=0;fillColor=none;top=0;left=0;bottom=0;right=0;editable=1;overflow=hidden;whiteSpace=wrap;html=1;" vertex="1" parent="k10JmdyCMAcYPSyfV8gS-48">
          <mxGeometry width="30" height="30" as="geometry">
            <mxRectangle width="30" height="30" as="alternateBounds" />
          </mxGeometry>
        </mxCell>
        <mxCell id="k10JmdyCMAcYPSyfV8gS-50" value="category" style="shape=partialRectangle;connectable=0;fillColor=none;top=0;left=0;bottom=0;right=0;align=left;spacingLeft=6;overflow=hidden;whiteSpace=wrap;html=1;" vertex="1" parent="k10JmdyCMAcYPSyfV8gS-48">
          <mxGeometry x="30" width="149" height="30" as="geometry">
            <mxRectangle width="149" height="30" as="alternateBounds" />
          </mxGeometry>
        </mxCell>
        <mxCell id="k10JmdyCMAcYPSyfV8gS-51" value="" style="shape=tableRow;horizontal=0;startSize=0;swimlaneHead=0;swimlaneBody=0;fillColor=none;collapsible=0;dropTarget=0;points=[[0,0.5],[1,0.5]];portConstraint=eastwest;top=0;left=0;right=0;bottom=0;" vertex="1" parent="k10JmdyCMAcYPSyfV8gS-29">
          <mxGeometry y="240" width="179" height="30" as="geometry" />
        </mxCell>
        <mxCell id="k10JmdyCMAcYPSyfV8gS-52" value="" style="shape=partialRectangle;connectable=0;fillColor=none;top=0;left=0;bottom=0;right=0;editable=1;overflow=hidden;whiteSpace=wrap;html=1;" vertex="1" parent="k10JmdyCMAcYPSyfV8gS-51">
          <mxGeometry width="30" height="30" as="geometry">
            <mxRectangle width="30" height="30" as="alternateBounds" />
          </mxGeometry>
        </mxCell>
        <mxCell id="k10JmdyCMAcYPSyfV8gS-53" value="subcategory" style="shape=partialRectangle;connectable=0;fillColor=none;top=0;left=0;bottom=0;right=0;align=left;spacingLeft=6;overflow=hidden;whiteSpace=wrap;html=1;" vertex="1" parent="k10JmdyCMAcYPSyfV8gS-51">
          <mxGeometry x="30" width="149" height="30" as="geometry">
            <mxRectangle width="149" height="30" as="alternateBounds" />
          </mxGeometry>
        </mxCell>
        <mxCell id="k10JmdyCMAcYPSyfV8gS-54" value="" style="shape=tableRow;horizontal=0;startSize=0;swimlaneHead=0;swimlaneBody=0;fillColor=none;collapsible=0;dropTarget=0;points=[[0,0.5],[1,0.5]];portConstraint=eastwest;top=0;left=0;right=0;bottom=0;" vertex="1" parent="k10JmdyCMAcYPSyfV8gS-29">
          <mxGeometry y="270" width="179" height="30" as="geometry" />
        </mxCell>
        <mxCell id="k10JmdyCMAcYPSyfV8gS-55" value="" style="shape=partialRectangle;connectable=0;fillColor=none;top=0;left=0;bottom=0;right=0;editable=1;overflow=hidden;whiteSpace=wrap;html=1;" vertex="1" parent="k10JmdyCMAcYPSyfV8gS-54">
          <mxGeometry width="30" height="30" as="geometry">
            <mxRectangle width="30" height="30" as="alternateBounds" />
          </mxGeometry>
        </mxCell>
        <mxCell id="k10JmdyCMAcYPSyfV8gS-56" value="maintenance" style="shape=partialRectangle;connectable=0;fillColor=none;top=0;left=0;bottom=0;right=0;align=left;spacingLeft=6;overflow=hidden;whiteSpace=wrap;html=1;" vertex="1" parent="k10JmdyCMAcYPSyfV8gS-54">
          <mxGeometry x="30" width="149" height="30" as="geometry">
            <mxRectangle width="149" height="30" as="alternateBounds" />
          </mxGeometry>
        </mxCell>
        <mxCell id="k10JmdyCMAcYPSyfV8gS-85" value="" style="shape=tableRow;horizontal=0;startSize=0;swimlaneHead=0;swimlaneBody=0;fillColor=none;collapsible=0;dropTarget=0;points=[[0,0.5],[1,0.5]];portConstraint=eastwest;top=0;left=0;right=0;bottom=0;" vertex="1" parent="k10JmdyCMAcYPSyfV8gS-29">
          <mxGeometry y="300" width="179" height="30" as="geometry" />
        </mxCell>
        <mxCell id="k10JmdyCMAcYPSyfV8gS-86" value="" style="shape=partialRectangle;connectable=0;fillColor=none;top=0;left=0;bottom=0;right=0;editable=1;overflow=hidden;whiteSpace=wrap;html=1;" vertex="1" parent="k10JmdyCMAcYPSyfV8gS-85">
          <mxGeometry width="30" height="30" as="geometry">
            <mxRectangle width="30" height="30" as="alternateBounds" />
          </mxGeometry>
        </mxCell>
        <mxCell id="k10JmdyCMAcYPSyfV8gS-87" value="cost" style="shape=partialRectangle;connectable=0;fillColor=none;top=0;left=0;bottom=0;right=0;align=left;spacingLeft=6;overflow=hidden;whiteSpace=wrap;html=1;" vertex="1" parent="k10JmdyCMAcYPSyfV8gS-85">
          <mxGeometry x="30" width="149" height="30" as="geometry">
            <mxRectangle width="149" height="30" as="alternateBounds" />
          </mxGeometry>
        </mxCell>
        <mxCell id="k10JmdyCMAcYPSyfV8gS-88" value="" style="shape=tableRow;horizontal=0;startSize=0;swimlaneHead=0;swimlaneBody=0;fillColor=none;collapsible=0;dropTarget=0;points=[[0,0.5],[1,0.5]];portConstraint=eastwest;top=0;left=0;right=0;bottom=0;" vertex="1" parent="k10JmdyCMAcYPSyfV8gS-29">
          <mxGeometry y="330" width="179" height="30" as="geometry" />
        </mxCell>
        <mxCell id="k10JmdyCMAcYPSyfV8gS-89" value="" style="shape=partialRectangle;connectable=0;fillColor=none;top=0;left=0;bottom=0;right=0;editable=1;overflow=hidden;whiteSpace=wrap;html=1;" vertex="1" parent="k10JmdyCMAcYPSyfV8gS-88">
          <mxGeometry width="30" height="30" as="geometry">
            <mxRectangle width="30" height="30" as="alternateBounds" />
          </mxGeometry>
        </mxCell>
        <mxCell id="k10JmdyCMAcYPSyfV8gS-90" value="product_line" style="shape=partialRectangle;connectable=0;fillColor=none;top=0;left=0;bottom=0;right=0;align=left;spacingLeft=6;overflow=hidden;whiteSpace=wrap;html=1;" vertex="1" parent="k10JmdyCMAcYPSyfV8gS-88">
          <mxGeometry x="30" width="149" height="30" as="geometry">
            <mxRectangle width="149" height="30" as="alternateBounds" />
          </mxGeometry>
        </mxCell>
        <mxCell id="k10JmdyCMAcYPSyfV8gS-91" value="" style="shape=tableRow;horizontal=0;startSize=0;swimlaneHead=0;swimlaneBody=0;fillColor=none;collapsible=0;dropTarget=0;points=[[0,0.5],[1,0.5]];portConstraint=eastwest;top=0;left=0;right=0;bottom=0;" vertex="1" parent="k10JmdyCMAcYPSyfV8gS-29">
          <mxGeometry y="360" width="179" height="30" as="geometry" />
        </mxCell>
        <mxCell id="k10JmdyCMAcYPSyfV8gS-92" value="" style="shape=partialRectangle;connectable=0;fillColor=none;top=0;left=0;bottom=0;right=0;editable=1;overflow=hidden;whiteSpace=wrap;html=1;" vertex="1" parent="k10JmdyCMAcYPSyfV8gS-91">
          <mxGeometry width="30" height="30" as="geometry">
            <mxRectangle width="30" height="30" as="alternateBounds" />
          </mxGeometry>
        </mxCell>
        <mxCell id="k10JmdyCMAcYPSyfV8gS-93" value="start_date" style="shape=partialRectangle;connectable=0;fillColor=none;top=0;left=0;bottom=0;right=0;align=left;spacingLeft=6;overflow=hidden;whiteSpace=wrap;html=1;" vertex="1" parent="k10JmdyCMAcYPSyfV8gS-91">
          <mxGeometry x="30" width="149" height="30" as="geometry">
            <mxRectangle width="149" height="30" as="alternateBounds" />
          </mxGeometry>
        </mxCell>
        <mxCell id="k10JmdyCMAcYPSyfV8gS-97" value="" style="shape=tableRow;horizontal=0;startSize=0;swimlaneHead=0;swimlaneBody=0;fillColor=none;collapsible=0;dropTarget=0;points=[[0,0.5],[1,0.5]];portConstraint=eastwest;top=0;left=0;right=0;bottom=1;" vertex="1" parent="1">
          <mxGeometry x="178" y="442" width="179" height="30" as="geometry" />
        </mxCell>
        <mxCell id="k10JmdyCMAcYPSyfV8gS-98" value="PK" style="shape=partialRectangle;connectable=0;fillColor=none;top=0;left=0;bottom=0;right=0;fontStyle=1;overflow=hidden;whiteSpace=wrap;html=1;" vertex="1" parent="k10JmdyCMAcYPSyfV8gS-97">
          <mxGeometry width="30" height="30" as="geometry">
            <mxRectangle width="30" height="30" as="alternateBounds" />
          </mxGeometry>
        </mxCell>
        <mxCell id="k10JmdyCMAcYPSyfV8gS-99" value="product_key" style="shape=partialRectangle;connectable=0;fillColor=none;top=0;left=0;bottom=0;right=0;align=left;spacingLeft=6;fontStyle=5;overflow=hidden;whiteSpace=wrap;html=1;" vertex="1" parent="k10JmdyCMAcYPSyfV8gS-97">
          <mxGeometry x="30" width="149" height="30" as="geometry">
            <mxRectangle width="149" height="30" as="alternateBounds" />
          </mxGeometry>
        </mxCell>
        <mxCell id="k10JmdyCMAcYPSyfV8gS-57" value="gold.fact_sales" style="shape=table;startSize=30;container=1;collapsible=1;childLayout=tableLayout;fixedRows=1;rowLines=0;fontStyle=1;align=center;resizeLast=1;html=1;fillColor=#dae8fc;strokeColor=#6c8ebf;" vertex="1" parent="1">
          <mxGeometry x="155" width="179" height="300" as="geometry" />
        </mxCell>
        <mxCell id="k10JmdyCMAcYPSyfV8gS-61" value="" style="shape=tableRow;horizontal=0;startSize=0;swimlaneHead=0;swimlaneBody=0;fillColor=none;collapsible=0;dropTarget=0;points=[[0,0.5],[1,0.5]];portConstraint=eastwest;top=0;left=0;right=0;bottom=0;" vertex="1" parent="k10JmdyCMAcYPSyfV8gS-57">
          <mxGeometry y="30" width="179" height="30" as="geometry" />
        </mxCell>
        <mxCell id="k10JmdyCMAcYPSyfV8gS-62" value="" style="shape=partialRectangle;connectable=0;fillColor=none;top=0;left=0;bottom=0;right=0;editable=1;overflow=hidden;whiteSpace=wrap;html=1;" vertex="1" parent="k10JmdyCMAcYPSyfV8gS-61">
          <mxGeometry width="26.56671142578125" height="30" as="geometry">
            <mxRectangle width="26.56671142578125" height="30" as="alternateBounds" />
          </mxGeometry>
        </mxCell>
        <mxCell id="k10JmdyCMAcYPSyfV8gS-63" value="order_number" style="shape=partialRectangle;connectable=0;fillColor=none;top=0;left=0;bottom=0;right=0;align=left;spacingLeft=6;overflow=hidden;whiteSpace=wrap;html=1;" vertex="1" parent="k10JmdyCMAcYPSyfV8gS-61">
          <mxGeometry x="26.56671142578125" width="152.43328857421875" height="30" as="geometry">
            <mxRectangle width="152.43328857421875" height="30" as="alternateBounds" />
          </mxGeometry>
        </mxCell>
        <mxCell id="k10JmdyCMAcYPSyfV8gS-64" value="" style="shape=tableRow;horizontal=0;startSize=0;swimlaneHead=0;swimlaneBody=0;fillColor=none;collapsible=0;dropTarget=0;points=[[0,0.5],[1,0.5]];portConstraint=eastwest;top=0;left=0;right=0;bottom=0;" vertex="1" parent="k10JmdyCMAcYPSyfV8gS-57">
          <mxGeometry y="60" width="179" height="30" as="geometry" />
        </mxCell>
        <mxCell id="k10JmdyCMAcYPSyfV8gS-65" value="&lt;b&gt;FK1&lt;/b&gt;" style="shape=partialRectangle;connectable=0;fillColor=none;top=0;left=0;bottom=0;right=0;editable=1;overflow=hidden;whiteSpace=wrap;html=1;" vertex="1" parent="k10JmdyCMAcYPSyfV8gS-64">
          <mxGeometry width="26.56671142578125" height="30" as="geometry">
            <mxRectangle width="26.56671142578125" height="30" as="alternateBounds" />
          </mxGeometry>
        </mxCell>
        <mxCell id="k10JmdyCMAcYPSyfV8gS-66" value="product_key" style="shape=partialRectangle;connectable=0;fillColor=none;top=0;left=0;bottom=0;right=0;align=left;spacingLeft=6;overflow=hidden;whiteSpace=wrap;html=1;" vertex="1" parent="k10JmdyCMAcYPSyfV8gS-64">
          <mxGeometry x="26.56671142578125" width="152.43328857421875" height="30" as="geometry">
            <mxRectangle width="152.43328857421875" height="30" as="alternateBounds" />
          </mxGeometry>
        </mxCell>
        <mxCell id="k10JmdyCMAcYPSyfV8gS-67" value="" style="shape=tableRow;horizontal=0;startSize=0;swimlaneHead=0;swimlaneBody=0;fillColor=none;collapsible=0;dropTarget=0;points=[[0,0.5],[1,0.5]];portConstraint=eastwest;top=0;left=0;right=0;bottom=0;" vertex="1" parent="k10JmdyCMAcYPSyfV8gS-57">
          <mxGeometry y="90" width="179" height="30" as="geometry" />
        </mxCell>
        <mxCell id="k10JmdyCMAcYPSyfV8gS-68" value="&lt;b&gt;FK2&lt;/b&gt;" style="shape=partialRectangle;connectable=0;fillColor=none;top=0;left=0;bottom=0;right=0;editable=1;overflow=hidden;whiteSpace=wrap;html=1;" vertex="1" parent="k10JmdyCMAcYPSyfV8gS-67">
          <mxGeometry width="26.56671142578125" height="30" as="geometry">
            <mxRectangle width="26.56671142578125" height="30" as="alternateBounds" />
          </mxGeometry>
        </mxCell>
        <mxCell id="k10JmdyCMAcYPSyfV8gS-69" value="customer_key" style="shape=partialRectangle;connectable=0;fillColor=none;top=0;left=0;bottom=0;right=0;align=left;spacingLeft=6;overflow=hidden;whiteSpace=wrap;html=1;" vertex="1" parent="k10JmdyCMAcYPSyfV8gS-67">
          <mxGeometry x="26.56671142578125" width="152.43328857421875" height="30" as="geometry">
            <mxRectangle width="152.43328857421875" height="30" as="alternateBounds" />
          </mxGeometry>
        </mxCell>
        <mxCell id="k10JmdyCMAcYPSyfV8gS-70" value="" style="shape=tableRow;horizontal=0;startSize=0;swimlaneHead=0;swimlaneBody=0;fillColor=none;collapsible=0;dropTarget=0;points=[[0,0.5],[1,0.5]];portConstraint=eastwest;top=0;left=0;right=0;bottom=0;" vertex="1" parent="k10JmdyCMAcYPSyfV8gS-57">
          <mxGeometry y="120" width="179" height="30" as="geometry" />
        </mxCell>
        <mxCell id="k10JmdyCMAcYPSyfV8gS-71" value="" style="shape=partialRectangle;connectable=0;fillColor=none;top=0;left=0;bottom=0;right=0;editable=1;overflow=hidden;whiteSpace=wrap;html=1;" vertex="1" parent="k10JmdyCMAcYPSyfV8gS-70">
          <mxGeometry width="26.56671142578125" height="30" as="geometry">
            <mxRectangle width="26.56671142578125" height="30" as="alternateBounds" />
          </mxGeometry>
        </mxCell>
        <mxCell id="k10JmdyCMAcYPSyfV8gS-72" value="order_date" style="shape=partialRectangle;connectable=0;fillColor=none;top=0;left=0;bottom=0;right=0;align=left;spacingLeft=6;overflow=hidden;whiteSpace=wrap;html=1;" vertex="1" parent="k10JmdyCMAcYPSyfV8gS-70">
          <mxGeometry x="26.56671142578125" width="152.43328857421875" height="30" as="geometry">
            <mxRectangle width="152.43328857421875" height="30" as="alternateBounds" />
          </mxGeometry>
        </mxCell>
        <mxCell id="k10JmdyCMAcYPSyfV8gS-73" value="" style="shape=tableRow;horizontal=0;startSize=0;swimlaneHead=0;swimlaneBody=0;fillColor=none;collapsible=0;dropTarget=0;points=[[0,0.5],[1,0.5]];portConstraint=eastwest;top=0;left=0;right=0;bottom=0;" vertex="1" parent="k10JmdyCMAcYPSyfV8gS-57">
          <mxGeometry y="150" width="179" height="30" as="geometry" />
        </mxCell>
        <mxCell id="k10JmdyCMAcYPSyfV8gS-74" value="" style="shape=partialRectangle;connectable=0;fillColor=none;top=0;left=0;bottom=0;right=0;editable=1;overflow=hidden;whiteSpace=wrap;html=1;" vertex="1" parent="k10JmdyCMAcYPSyfV8gS-73">
          <mxGeometry width="26.56671142578125" height="30" as="geometry">
            <mxRectangle width="26.56671142578125" height="30" as="alternateBounds" />
          </mxGeometry>
        </mxCell>
        <mxCell id="k10JmdyCMAcYPSyfV8gS-75" value="shipping_date" style="shape=partialRectangle;connectable=0;fillColor=none;top=0;left=0;bottom=0;right=0;align=left;spacingLeft=6;overflow=hidden;whiteSpace=wrap;html=1;" vertex="1" parent="k10JmdyCMAcYPSyfV8gS-73">
          <mxGeometry x="26.56671142578125" width="152.43328857421875" height="30" as="geometry">
            <mxRectangle width="152.43328857421875" height="30" as="alternateBounds" />
          </mxGeometry>
        </mxCell>
        <mxCell id="k10JmdyCMAcYPSyfV8gS-76" value="" style="shape=tableRow;horizontal=0;startSize=0;swimlaneHead=0;swimlaneBody=0;fillColor=none;collapsible=0;dropTarget=0;points=[[0,0.5],[1,0.5]];portConstraint=eastwest;top=0;left=0;right=0;bottom=0;" vertex="1" parent="k10JmdyCMAcYPSyfV8gS-57">
          <mxGeometry y="180" width="179" height="30" as="geometry" />
        </mxCell>
        <mxCell id="k10JmdyCMAcYPSyfV8gS-77" value="" style="shape=partialRectangle;connectable=0;fillColor=none;top=0;left=0;bottom=0;right=0;editable=1;overflow=hidden;whiteSpace=wrap;html=1;" vertex="1" parent="k10JmdyCMAcYPSyfV8gS-76">
          <mxGeometry width="26.56671142578125" height="30" as="geometry">
            <mxRectangle width="26.56671142578125" height="30" as="alternateBounds" />
          </mxGeometry>
        </mxCell>
        <mxCell id="k10JmdyCMAcYPSyfV8gS-78" value="due_date" style="shape=partialRectangle;connectable=0;fillColor=none;top=0;left=0;bottom=0;right=0;align=left;spacingLeft=6;overflow=hidden;whiteSpace=wrap;html=1;" vertex="1" parent="k10JmdyCMAcYPSyfV8gS-76">
          <mxGeometry x="26.56671142578125" width="152.43328857421875" height="30" as="geometry">
            <mxRectangle width="152.43328857421875" height="30" as="alternateBounds" />
          </mxGeometry>
        </mxCell>
        <mxCell id="k10JmdyCMAcYPSyfV8gS-79" value="" style="shape=tableRow;horizontal=0;startSize=0;swimlaneHead=0;swimlaneBody=0;fillColor=none;collapsible=0;dropTarget=0;points=[[0,0.5],[1,0.5]];portConstraint=eastwest;top=0;left=0;right=0;bottom=0;" vertex="1" parent="k10JmdyCMAcYPSyfV8gS-57">
          <mxGeometry y="210" width="179" height="30" as="geometry" />
        </mxCell>
        <mxCell id="k10JmdyCMAcYPSyfV8gS-80" value="" style="shape=partialRectangle;connectable=0;fillColor=none;top=0;left=0;bottom=0;right=0;editable=1;overflow=hidden;whiteSpace=wrap;html=1;" vertex="1" parent="k10JmdyCMAcYPSyfV8gS-79">
          <mxGeometry width="26.56671142578125" height="30" as="geometry">
            <mxRectangle width="26.56671142578125" height="30" as="alternateBounds" />
          </mxGeometry>
        </mxCell>
        <mxCell id="k10JmdyCMAcYPSyfV8gS-81" value="sales_amount" style="shape=partialRectangle;connectable=0;fillColor=none;top=0;left=0;bottom=0;right=0;align=left;spacingLeft=6;overflow=hidden;whiteSpace=wrap;html=1;" vertex="1" parent="k10JmdyCMAcYPSyfV8gS-79">
          <mxGeometry x="26.56671142578125" width="152.43328857421875" height="30" as="geometry">
            <mxRectangle width="152.43328857421875" height="30" as="alternateBounds" />
          </mxGeometry>
        </mxCell>
        <mxCell id="k10JmdyCMAcYPSyfV8gS-82" value="" style="shape=tableRow;horizontal=0;startSize=0;swimlaneHead=0;swimlaneBody=0;fillColor=none;collapsible=0;dropTarget=0;points=[[0,0.5],[1,0.5]];portConstraint=eastwest;top=0;left=0;right=0;bottom=0;" vertex="1" parent="k10JmdyCMAcYPSyfV8gS-57">
          <mxGeometry y="240" width="179" height="30" as="geometry" />
        </mxCell>
        <mxCell id="k10JmdyCMAcYPSyfV8gS-83" value="" style="shape=partialRectangle;connectable=0;fillColor=none;top=0;left=0;bottom=0;right=0;editable=1;overflow=hidden;whiteSpace=wrap;html=1;" vertex="1" parent="k10JmdyCMAcYPSyfV8gS-82">
          <mxGeometry width="26.56671142578125" height="30" as="geometry">
            <mxRectangle width="26.56671142578125" height="30" as="alternateBounds" />
          </mxGeometry>
        </mxCell>
        <mxCell id="k10JmdyCMAcYPSyfV8gS-84" value="quantity" style="shape=partialRectangle;connectable=0;fillColor=none;top=0;left=0;bottom=0;right=0;align=left;spacingLeft=6;overflow=hidden;whiteSpace=wrap;html=1;" vertex="1" parent="k10JmdyCMAcYPSyfV8gS-82">
          <mxGeometry x="26.56671142578125" width="152.43328857421875" height="30" as="geometry">
            <mxRectangle width="152.43328857421875" height="30" as="alternateBounds" />
          </mxGeometry>
        </mxCell>
        <mxCell id="k10JmdyCMAcYPSyfV8gS-94" value="" style="shape=tableRow;horizontal=0;startSize=0;swimlaneHead=0;swimlaneBody=0;fillColor=none;collapsible=0;dropTarget=0;points=[[0,0.5],[1,0.5]];portConstraint=eastwest;top=0;left=0;right=0;bottom=0;" vertex="1" parent="k10JmdyCMAcYPSyfV8gS-57">
          <mxGeometry y="270" width="179" height="30" as="geometry" />
        </mxCell>
        <mxCell id="k10JmdyCMAcYPSyfV8gS-95" value="" style="shape=partialRectangle;connectable=0;fillColor=none;top=0;left=0;bottom=0;right=0;editable=1;overflow=hidden;whiteSpace=wrap;html=1;" vertex="1" parent="k10JmdyCMAcYPSyfV8gS-94">
          <mxGeometry width="26.56671142578125" height="30" as="geometry">
            <mxRectangle width="26.56671142578125" height="30" as="alternateBounds" />
          </mxGeometry>
        </mxCell>
        <mxCell id="k10JmdyCMAcYPSyfV8gS-96" value="price" style="shape=partialRectangle;connectable=0;fillColor=none;top=0;left=0;bottom=0;right=0;align=left;spacingLeft=6;overflow=hidden;whiteSpace=wrap;html=1;" vertex="1" parent="k10JmdyCMAcYPSyfV8gS-94">
          <mxGeometry x="26.56671142578125" width="152.43328857421875" height="30" as="geometry">
            <mxRectangle width="152.43328857421875" height="30" as="alternateBounds" />
          </mxGeometry>
        </mxCell>
        <mxCell id="k10JmdyCMAcYPSyfV8gS-100" value="" style="edgeStyle=orthogonalEdgeStyle;fontSize=12;html=1;endArrow=ERzeroToMany;startArrow=ERmandOne;rounded=0;startSize=8;endSize=8;entryX=0;entryY=0.5;entryDx=0;entryDy=0;exitX=0.995;exitY=0.162;exitDx=0;exitDy=0;exitPerimeter=0;" edge="1" parent="1" source="k10JmdyCMAcYPSyfV8gS-2" target="k10JmdyCMAcYPSyfV8gS-67">
          <mxGeometry width="100" height="100" relative="1" as="geometry">
            <mxPoint x="24" y="47" as="sourcePoint" />
            <mxPoint x="124" y="-53" as="targetPoint" />
          </mxGeometry>
        </mxCell>
        <mxCell id="k10JmdyCMAcYPSyfV8gS-101" value="" style="edgeStyle=orthogonalEdgeStyle;fontSize=12;html=1;endArrow=ERzeroToMany;startArrow=ERmandOne;rounded=0;startSize=8;endSize=8;entryX=1;entryY=0.5;entryDx=0;entryDy=0;exitX=0;exitY=0.5;exitDx=0;exitDy=0;" edge="1" parent="1" source="k10JmdyCMAcYPSyfV8gS-30" target="k10JmdyCMAcYPSyfV8gS-64">
          <mxGeometry width="100" height="100" relative="1" as="geometry">
            <mxPoint x="302" y="-172" as="sourcePoint" />
            <mxPoint x="454" y="-102" as="targetPoint" />
          </mxGeometry>
        </mxCell>
      </root>
    </mxGraphModel>
  </diagram>
</mxfile>
